#!OML:ASF F:\VICON\USERDATA\INSTALL\rory3\rory3.ASF
:FULLY-SPECIFIED
:DEGREES
41
root 4.541261543118625 17.83994019483479 5.871651221344316 -2.969271139680835 -4.90955080889848 -3.532319253899811
lfemur -22.257669868487604 -1.820904222508396 -17.991310336878538
ltibia 26.37201304346519
lfoot -8.10307285138652 -1.6312882281683003
ltoes -3.0031384534604655
rfemur 3.199275480269577 3.119146733556511 27.181931521470656
rtibia 51.03355844528414
rfoot 8.087016258619492 1.3298460975307638
rtoes -3.736772158513891
lowerback nan 1.824734968485958 3.5210764861881536
upperback 0.23960716205020924 2.849133052535924 0.9702121292358515
thorax -6.066786817145582 1.1865898260616157 -1.044004832804991
lowerneck -16.34786654815286 -3.9195116583782523 -1.6083566573493262
upperneck 21.06441473217418 -5.195044146616321 0.4466229383036564
head 10.085646896847928 -2.3969280074227766 -0.09292981745355161
lclavicle 1.377644218639536e-15 -2.299783916423035e-16
lhumerus -41.30670273797943 7.280175758140278 78.19532093345317
lradius 24.199408784438695
lwrist 2.972403369750546
lhand -26.866623505972658 25.17974231711493
lfingers nan
lthumb -0.29389562899889987 54.65213613594755
rclavicle -2.7288047982062127e-15 -2.374220260914656e-15
rhumerus -26.67233391544775 -17.3821344653642 -80.04026796362933
rradius 29.7196766529488
rwrist 2.2149977217344166
rhand -19.164890058092062 nan
rfingers nan
rthumb 7.1364327833888845 -5.428837230140327
42
root 4.603797415662296 17.86224539897915 6.730141447486557 -3.373790929816195 -5.186970560770941 -2.095573940520362
lfemur -20.1776172465153 -1.700164647120598 -20.80538065342328
ltibia 28.127425241274445
lfoot -9.917706987764857 -0.6457536289665899
ltoes -3.434750904839496
rfemur -2.496081948887877 4.031838284821689 24.904407543287906
rtibia 61.46274007962493
rfoot 16.775235932107293 1.6925837927509733
rtoes 2.4879921713068747
lowerback nan 1.942075873097358 2.2342059233428846
upperback 0.21317244931250884 2.8881601451786816 0.6204366957836609
thorax -6.032527192328707 1.2632995012737673 -1.055524916292323
lowerneck -16.1623168966123 -3.7230922394982704 -1.619241842400431
upperneck 20.938223465781192 -5.13484597237678 0.6203392227113628
head 9.875260170776242 -2.350920959573739 0.02684051490974021
lclavicle -1.800665349064571e-15 -1.0289221675327458e-15
lhumerus -40.489070741611016 5.69796546516731 79.42860999710484
lradius 23.623825999923902
lwrist 3.4066035276516327
lhand -26.738651723918984 24.887282429917875
lfingers nan
lthumb -0.43565645112172 54.705349898699275
rclavicle -1.0827646633333326e-15 -1.41984752847223e-15
rhumerus -27.239323248150193 -18.486700089422502 -79.5953938076611
rradius 29.036242485545625
rwrist 2.9875360173770904
rhand -18.487513858275705 nan
rfingers nan
rthumb 7.649721348359464 -5.990262613457902
43
root 4.635572742212253 17.875360265930645 6.677843473428254 -3.77388992453934 -5.443518946590915 -1.3119013254210357
lfemur -16.532012362119374 -1.9793553965639545 -23.420967935430188
ltibia 27.871655828133644
lfoot -11.020409192604976 0.23334265303358315
ltoes 1.4470146936164285
rfemur -8.763767319300639 3.3077141569309383 22.72286011826038
rtibia 71.0000615837776
rfoot 19.048693115625575 0.41698016814521566
rtoes 9.206706804573624
lowerback nan 1.6198922562487512 0.4494207125507039
upperback 0.5718400718254034 2.2644157915702134 0.027051530942079127
thorax -5.748348462616066 1.015432821544969 -0.44274059556039624
lowerneck -16.520058036836524 -3.652164180351917 -1.693426205072789
upperneck 21.365257688041595 -4.599746346716196 0.5228112480184921
head 9.581243861636604 -2.1106100513328183 0.07547995174909504
lclavicle -4.361118603296825e-15 -3.0359525348303076e-15
lhumerus -39.42944056341888 4.837960272779088 80.02244874511659
lradius 23.360432021103755
lwrist 3.432173782542722
lhand -26.208658513559726 24.59973775222556
lfingers nan
lthumb 0.290065145433538 54.658701112038905
rclavicle -3.210526258283652e-15 -2.4674360180572593e-15
rhumerus -28.023686665068745 -19.168820628578246 -79.09045483583273
rradius 28.0226907144291
rwrist 4.381758350425505
rhand -18.052598882924972 nan
rfingers nan
rthumb 7.9552173419586385 -5.990057599569187
44
root 4.6570539975372185 17.891369416400995 6.974733192312874 -4.005091251824661 -5.379703741012099 -0.6973234838576712
lfemur -13.81343269876379 -3.130013537340494 -24.725506754429247
ltibia 27.389265467991216
lfoot -11.932618613600106 0.7934641687246518
ltoes 1.5885282744020905
rfemur -14.526513038992825 1.5355778930748163 21.91834409615174
rtibia 76.53870478467584
rfoot 12.758862150292726 -2.583234428061296
rtoes 18.609408027738034
lowerback nan 1.1273513968366586 -0.32289412014587815
upperback 0.6118488092827082 1.647570681075617 -0.026743650443756373
thorax -5.722726037570659 0.6892750824607079 0.1242639843530765
lowerneck -16.3379737509089 -3.468229181808744 -1.748874989239599
upperneck 21.874865845999995 -4.300993441077595 0.26437552689993654
head 9.517580428181182 -2.008330607524079 -0.003108794609235674
lclavicle 7.591143308994902e-16 9.836193349459178e-16
lhumerus -38.539650982508775 4.276470235810447 80.1485033649657
lradius 24.16640436444024
lwrist 3.2845366610296103
lhand -26.66952023824001 24.213837348837355
lfingers nan
lthumb -0.11347398894300009 53.83036253283346
rclavicle -1.7757885193050935e-15 -7.868828465938236e-16
rhumerus -28.99445453127933 -19.54626795465716 -78.65951673960504
rradius 26.752206830555096
rwrist 6.852671413256756
rhand -18.115417212327635 nan
rfingers nan
rthumb 7.9304588634029685 -5.983648151432765
45
root 4.674508203131724 17.90242287721328 7.567989190597216 -4.239489829056928 -5.058690443366386 -0.15189223132331198
lfemur -10.46840630707896 -3.469292611919156 -24.9586462700775
ltibia 26.956712299539912
lfoot -12.950329610528172 0.9851643479988605
ltoes 6.749433168197322
rfemur -19.37138881223111 0.7296860919709509 22.044261456108124
rtibia 78.07264289987188
rfoot 6.615104439193518 -5.343591631347596
rtoes 16.33349009445243
lowerback nan 0.7534899937491092 -0.40999385954952494
upperback 0.5827992619353569 1.1986149341904162 0.1060774433869911
thorax -5.71890443525054 0.5121753721380302 0.6807501434089771
lowerneck -16.122533139456277 -3.247492726581667 -1.8870622472196725
upperneck 21.951771997057588 -4.086149722945627 0.16988961967458438
head 9.484813285008489 -1.9164521936797392 -0.10660310686545099
lclavicle -3.0832812342262068e-15 -1.19929801167031e-16
lhumerus -37.31428084153118 3.4296950759582794 80.73397619503265
lradius 23.395544375562434
lwrist 3.4982419555624467
lhand -26.318723293361305 24.677982863997457
lfingers nan
lthumb -0.03174516657783255 54.30676512471423
rclavicle -5.823863401534674e-16 1.4515812538768319e-15
rhumerus -29.90729555061148 -19.333086291785783 -78.43411638486853
rradius 25.993807325890657
rwrist 7.66177668583868
rhand -18.11488386640083 nan
rfingers nan
rthumb 8.049740864013195 -7.063471664748459
